<svg xmlns="http://www.w3.org/2000/svg" width="512" height="512" viewBox="0 0 512 512">
  <defs>
    <linearGradient id="bg" x1="0" y1="0" x2="1" y2="1">
      <stop offset="0%" stop-color="#2563eb"/>
      <stop offset="100%" stop-color="#7c3aed"/>
    </linearGradient>
  </defs>
  <rect width="512" height="512" rx="96" fill="url(#bg)"/>
  <path d="M160 100h140l62 62v250a20 20 0 01-20 20H160a20 20 0 01-20-20V120a20 20 0 0120-20z" fill="white" opacity="0.9"/>
  <path d="M300 100v42a20 20 0 0020 20h42" fill="none" stroke="white" stroke-width="4" opacity="0.5"/>
  <rect x="180" y="200" width="160" height="8" rx="4" fill="#2563eb" opacity="0.6"/>
  <rect x="180" y="230" width="120" height="8" rx="4" fill="#2563eb" opacity="0.4"/>
  <rect x="180" y="260" width="140" height="8" rx="4" fill="#2563eb" opacity="0.6"/>
  <rect x="180" y="290" width="100" height="8" rx="4" fill="#2563eb" opacity="0.4"/>
  <rect x="180" y="320" width="150" height="8" rx="4" fill="#2563eb" opacity="0.6"/>
  <text x="256" y="180" text-anchor="middle" font-family="Arial,sans-serif" font-weight="bold" font-size="40" fill="#1e3a5f">ORDER</text>
</svg>
